# xmcd
# Track frame offsets:
# 150
# 16810
# 30267
# 42942
# 55917
# 68377
# 81005
# 93912
# 107110
# 121220
# 136272
# 150027
# 163945
# 177615
# 190727
# 204082
# 217860
# 231007
# 244722
# 259210
#
# Disc length: 3630 seconds
# Revision: 0
# Processed by: cddbd v1.4PL0 Copyright (c) Steve Scherf et al.
# Submitted via: VisiTrax 2.9.6.190 - For more info visit www.synapsa.com
#
DISCID=f20e2c14
DTITLE=Ida Cox - Ida Cox - The Uncrowned Queen Of The Blues
DYEAR=1996
DGENRE=Blues
TTITLE0=Any Woman's Blues
TTITLE1=Graveyard Dream Blues: #1
TTITLE2=Weary Way Blues
TTITLE3=Ida Cox's Lawdy, Lawdy Blues: #3
TTITLE4=Moanin' Groanin' Blues
TTITLE5=Come Right In
TTITLE6=I've Got The Blues For Rampart Street: #4
TTITLE7=Graveyard Dream Blues
TTITLE8=Mama Doo Shee Blues
TTITLE9=Worried Mama Blues
TTITLE10=So Soon This Morning Blues
TTITLE11=Mail Man Blues
TTITLE12=Confidential Blues
TTITLE13=Bear-Mash Blues
TTITLE14=Last Time Blues
TTITLE15=Worried Any How Blues
TTITLE16=Chicago Monkey Man Blues: #1
TTITLE17=Mean Papa, Turn Your Key
TTITLE18=Blues Ain't Nothin' Else But!
TTITLE19=Worried In Mind Blues: #1
EXTD=Black Swan, BSCD-7
EXTT0=
EXTT1=
EXTT2=
EXTT3=
EXTT4=
EXTT5=
EXTT6=
EXTT7=
EXTT8=
EXTT9=
EXTT10=
EXTT11=
EXTT12=
EXTT13=
EXTT14=
EXTT15=
EXTT16=
EXTT17=
EXTT18=
EXTT19=
PLAYORDER=
